<!-- PLACEHOLDER — replace with official Sarvam AI logo (keep filename sarvam-logo.svg) -->
<svg width="24" height="24" viewBox="0 0 24 24" fill="none" xmlns="http://www.w3.org/2000/svg">
  <rect width="24" height="24" rx="6" fill="#F26B3A"/>
  <path d="M15.2 8.4c-.5-.7-1.4-1.1-2.6-1.1-1.7 0-2.9.9-2.9 2.3 0 1.3 1 1.9 2.6 2.3 1.2.3 1.6.5 1.6 1 0 .5-.5.8-1.3.8-.9 0-1.5-.4-1.8-1l-1.5.8c.5 1 1.6 1.6 3.2 1.6 1.9 0 3.1-.9 3.1-2.4 0-1.4-1.1-2-2.7-2.4-1.1-.3-1.5-.5-1.5-1 0-.4.4-.7 1.1-.7.7 0 1.2.3 1.5.8l1.2-.8z" fill="#fff"/>
</svg>
